<svg width="100%" height="100%" viewBox="0 0 1572 1572" version="1.1" xmlns="http://www.w3.org/2000/svg">
  <circle id="background" cx="786" cy="786" r="786" style="fill:#ffd500;"/>
  <g id="portrait">
    <g id="hoodie">
      <path d="M452,896C452,896 365.814,936.76 342,987C318.186,1037.24 315.246,1078.33 317,1105C318.754,1131.67 325,1189 325,1189C325,1189 249.94,1236.23 230,1250C210.06,1263.77 180,1284 180,1284C180,1284 264.642,1399.73 424,1486C595.784,1579 905.656,1625.99 1151,1485C1151,1485 1403.78,1345.57 1499,1134C1499,1134 1471.62,1065.18 1439,1040C1406.38,1014.82 1340,982 1340,982C1340,982 1331.68,883.75 1284,854C1236.32,824.25 1135,803 1135,803L452,896Z" style="fill:rgb(230,230,230);fill-rule:nonzero;"/>
      <path d="M329,1199C329,1199 348.474,1256.01 353,1292C357.526,1327.99 356.854,1363.14 357,1380C357.146,1396.86 372.344,1428.9 378,1437C383.656,1445.1 403,1476 403,1476C403,1476 462.757,1505.36 475,1510C475,1510 455.11,1455.51 428,1403C400.89,1350.49 329,1199 329,1199ZM1079,1408C1089.08,1399.28 1285.73,1230.93 1321,1179C1356.27,1127.07 1387.77,1130.68 1408,1146C1428.23,1161.32 1459,1208 1459,1208L1502,1129C1502,1129 1471.55,1066.8 1439,1040C1406.45,1013.2 1366.69,994.59 1354,990C1341.31,985.41 1331,982 1331,982C1331,982 1331.25,1017.95 1327,1046C1322.75,1074.05 1300.93,1140.08 1277,1179C1253.07,1217.92 1068.92,1416.72 1079,1408ZM455,941C455,941 404.335,954.63 376,1000C347.665,1045.37 375,1105 375,1105C375,1105 355.903,1058.59 396,1038C436.097,1017.41 473,997 473,997L455,941ZM1255,1004C1255,1004 1280.67,921.18 1265,875C1249.33,828.82 1213.87,816.9 1171,814C1128.13,811.1 1127,825 1127,825L1255,1004Z" style="fill:rgb(209,209,209);fill-rule:nonzero;"/>
      <path d="M472,1002C472,1002 397.266,1011.56 383,1053C368.734,1094.44 386.211,1148.91 416,1190C445.789,1231.09 500,1347 500,1347C500,1347 522.508,1257.45 530,1247C537.492,1236.55 579.266,1192.16 582,1184C584.734,1175.84 572.344,1104.06 563,1093C553.656,1081.94 472,1002 472,1002ZM1132,838C1132,838 1227.86,836.85 1250,883C1272.14,929.15 1275.27,975.84 1254,1014C1232.73,1052.16 1204.47,1079.5 1185,1098C1165.53,1116.5 1132.97,1141.89 1125,1155C1117.03,1168.11 1080,1201 1080,1201C1080,1201 1086.93,1126.15 1080,1107C1073.07,1087.85 1074.05,1010.02 1068,993C1061.95,975.98 1132,838 1132,838Z" style="fill:rgb(173,173,173);fill-rule:nonzero;"/>
      <path d="M755,1569C755,1569 832.269,1504.75 947,1391C1061.73,1277.25 1129.28,1142.4 1180,1112C1230.72,1081.6 1261.11,1018.42 1264,971C1266.89,923.58 1241,870 1241,870C1241,870 1280.86,974.97 1236,1038C1191.14,1101.03 1168.12,1103.1 1130,1149C1130,1149 1032.13,1274.94 990,1327C947.87,1379.06 871.515,1448.91 833,1486C794.485,1523.09 755,1569 755,1569ZM1336.18,980.14C1339.79,1028.15 1335.36,1077.4 1326,1108C1309.56,1161.73 1185.58,1314.38 1123,1377C1060.42,1439.62 958,1531 958,1531C958,1531 1110.45,1378.73 1143,1345C1175.55,1311.27 1312.53,1164.41 1323,1053C1333.47,941.59 1330.24,843.94 1185,817C1185,817 1282.35,820.96 1313,882C1326.15,908.2 1333.44,943.64 1336.16,979.81C1349.48,984.8 1420.71,1012.51 1446,1043C1473.95,1076.69 1500,1126 1500,1126C1500,1126 1446.66,1051.74 1423,1032C1401.92,1014.41 1347.75,986.09 1336.18,980.14ZM322.351,1182.64L185,1282L327.048,1202.65C331.56,1219.95 337.252,1237.06 344,1254C373.402,1327.83 470,1498 470,1498C470,1498 354.247,1273.92 334,1194C313.753,1114.08 305.984,977.97 441,897C441,897 344.768,936.66 325,1020C311.51,1076.87 311.587,1130.71 322.351,1182.64ZM453,1004C453,1004 371.391,1038.36 381,1082C390.609,1125.64 420.786,1187.27 442,1230C468.814,1284.01 595,1476 595,1476C595,1476 532.119,1407.31 465,1293C397.881,1178.69 357.982,1109.47 365,1072C372.018,1034.53 453,1004 453,1004ZM483,1067C483,1067 414.558,1089 434,1168C434,1168 405.098,1095.06 475,1046L483,1067ZM1162.63,1066.32C1167.3,1074.45 1170,1080 1170,1080C1168.65,1075.32 1166.08,1070.73 1162.63,1066.32C1152.23,1048.18 1132.01,1017.15 1110,1006L1084,1016C1084,1016 1140.81,1038.07 1162.63,1066.32ZM1126,875C1126,875 1272.89,916.85 1235,1036C1235,1036 1274.11,967.12 1213,908C1151.89,848.88 1102,846 1102,846L1126,875Z" style="fill:rgb(154,154,154);fill-rule:nonzero;"/>
      <path d="M559,1173C559,1173 521.044,1192.9 504,1218C486.956,1243.1 485,1272 485,1272L487,1330C487,1330 586.436,1470.3 615,1505C643.564,1539.7 663,1558 663,1558L761,1568L919,1409L559,1173Z" style="fill:rgb(93,93,93);fill-rule:nonzero;"/>
    </g>
    <g id="skin">
      <path d="M425,465C424.76,465.076 419.58,537.861 417.124,558.903C414.602,580.519 418,602 418,602L400,623L401,644C401,644 388.234,648.156 390,657C391.766,665.84 396.969,691.59 401,711C405.031,730.41 407.434,750.84 408,767C408.566,783.16 405.012,818.17 415,835C424.988,851.83 437,857 437,857C437,857 455.844,1004.53 478,1049C500.156,1093.47 522.074,1117.56 530,1127C537.926,1136.44 541.043,1167.51 541,1175C540.957,1182.49 560,1340 560,1340C560,1340 573.812,1391.17 628,1428C682.188,1464.83 742.676,1494.3 785,1489C827.324,1483.7 879.414,1470.18 890,1460C900.586,1449.82 1088.09,1233.75 1103,1194C1103,1194 1106.46,1158.91 1106,1131C1105.54,1103.09 1106,1019 1106,1019L1118,903L1130,854C1130,854 1140.29,868.98 1156,853C1171.71,837.02 1178.58,817.77 1191,793C1203.42,768.23 1206.92,749.79 1207,729C1207.08,708.21 1207.84,704.33 1217,687C1226.16,669.67 1238.62,621.68 1231,606C1223.38,590.32 1223.13,585.859 1211,589C1198.87,592.141 1184,598 1184,598C1184,598 1178.04,575.543 1177,563C1175.96,550.457 1171.82,536.309 1172,524C1172.18,511.691 1170,480 1170,480L1164,456C1164,456 905.969,295.199 893,289C880.031,282.801 738.898,264.66 723,266C707.102,267.34 598.938,298.937 585,304C571.063,309.063 482.688,332.625 473,340C463.313,347.375 465.403,452.31 425,465Z" style="fill:rgb(250,222,210);fill-rule:nonzero;"/>
      <path d="M917.03,1032.59C915.59,1030.55 913.28,1028.15 910,1027C903.723,1024.81 886,1021 886,1021C886,1021 886.762,1018.68 896,1016C905.238,1013.32 927,1010 927,1010L943,1008C943,1008 952.25,1010.31 953,1015C953.33,1017.07 954.22,1018.26 954.47,1019.56C959.54,1026.04 965.71,1033.97 968,1037C972.15,1042.49 961,1048 961,1048L943,1051C943,1051 927.85,1055.39 923,1058C918.15,1060.61 900,1069 900,1069L895,1080C895,1080 893.367,1092.56 895,1098C896.633,1103.44 906,1119 906,1119C906,1119 918.63,1125.64 927,1129C935.37,1132.36 957,1132 957,1132C957,1132 932.65,1150.77 926,1155C919.35,1159.23 898.926,1165.77 895,1170C891.074,1174.23 864.566,1194.42 857,1200C849.434,1205.58 823.766,1211.25 811,1215C798.234,1218.75 780.82,1216.02 760,1216C739.18,1215.98 717.66,1205.68 688,1186C658.34,1166.32 640,1141 640,1141L654,1141C654,1141 670.621,1136.62 683,1129L686,1114L684,1102L677,1089L669,1076C669,1076 660.82,1064.25 656,1063C651.18,1061.75 644,1052 644,1052C644,1052 620.432,1035.48 625,1031C640.41,1015.88 665,1028 665,1028L645,1033C645,1033 649.07,1041.63 655,1046C660.93,1050.37 671,1060 671,1060C671,1060 675.344,1064.37 681,1068C686.656,1071.63 701.492,1080.17 715,1087C728.508,1093.83 756.187,1093.69 773,1091C789.812,1088.31 801.156,1086.99 827,1083C852.844,1079.01 858.629,1070.16 869,1067C879.371,1063.84 883.766,1057.43 889,1053C894.234,1048.57 904.23,1040.95 911,1037C912.51,1036.12 914.64,1034.53 917.03,1032.59ZM529.861,590.265C519.702,589.203 501.572,587.374 495,587C485.664,586.469 469,578 469,578C469,578 473.203,557.734 478,540L467,513L468,493L450,476L430,463L436,453C436,453 445.219,447.469 455,443C464.781,438.531 496,425 496,425C496,425 553.094,403.82 569,400C584.906,396.18 627.367,388.125 652,385C676.633,381.875 720.078,382.219 748,382C775.922,381.781 888.586,400.18 944,406C999.41,411.82 1107.11,467.477 1124,473C1140.89,478.523 1148,483 1148,483L1135,497L1106,511L1100,534L1091,554L1109.44,569.897C1114.72,570.433 1118,571 1118,571L1123.57,580.617C1125.09,581.587 1126.25,582.417 1127,583C1131.98,586.875 1135,599 1135,599C1135,599 1134.26,598.689 1132.93,598.162L1142,617L1142.04,617.212C1142.75,609.713 1143,603 1143,603C1143,603 1151.83,599.098 1157,599C1162.17,598.902 1174,606 1174,606L1184,605L1198,591C1198,591 1209.05,587.957 1214,588C1218.95,588.043 1224,595 1224,595C1224,595 1233.18,612.855 1233,618C1232.82,623.145 1222,641 1222,641L1210,624L1193,621C1193,621 1182.65,628.656 1181,633C1179.35,637.344 1165,670 1165,670C1165,670 1162.19,694.82 1163,699C1163.81,703.18 1163.7,708.69 1167,720C1170.3,731.31 1172,736 1172,736L1183,729L1192,714L1202,654C1202,654 1204.76,695.16 1205,709C1205.24,722.84 1204.76,758.48 1199,781C1193.24,803.52 1168.5,848.75 1151,860C1140.59,866.69 1133.72,863.65 1129.87,860.08C1121.21,900.24 1097.63,989.66 1096,1002C1094.05,1016.78 1047.68,1043.84 1037,1052C1026.32,1060.16 996.4,1039.97 998,1031C999.6,1022.03 1000,1010 1000,1010L1004,967L991.44,949.06C992.58,951.5 993.42,953.81 994,956C998.18,971.89 999,978 999,978L999,1000C999,1000 996.16,956.11 970.44,932.69L944,918L926.42,904.81C909.772,896.78 897.051,893.99 898,902C899.652,915.96 915.68,928.39 916,939C916.32,949.61 899.949,953.57 889,955C878.051,956.43 821.969,953.21 813,953C804.031,952.79 781,930 781,930C781,930 808.402,915.47 810,886C811.598,856.53 803.117,735.66 797,696C790.883,656.336 792.066,641.492 770,638C757.724,636.057 742.086,637.823 730.628,639.806C721.786,647.491 723.908,660.52 723,675C721.918,692.25 716.758,749.27 719,776C721.242,802.73 708.672,854.31 710,880C711.328,905.69 744,925 744,925L735,943C735,943 707.66,945.37 703,947C698.34,948.63 661.43,961.4 645,972C628.57,982.6 610.398,1016.31 606,1030C602.729,1040.18 593.817,1050.15 589.459,1054.59L586,1062C582.914,1068.41 582.098,1092.35 582,1098C581.902,1103.65 552.18,1091.18 539,1079C525.82,1066.82 491.738,1014.01 482,1000C472.262,985.99 458.285,954.83 451,945C443.715,935.17 444.035,900.31 444,890C443.965,879.69 441.527,860.07 431,853C420.473,845.93 417.844,838.94 416,828C414.156,817.06 408.16,788.67 408,777C407.84,765.33 415,751 415,751L424,733C424,733 442.539,752.4 449,755C455.461,757.6 494.496,772.66 507,773C517.615,773.29 473.445,781.98 469,784C464.555,786.02 457.316,790.69 461,802C464.684,813.31 470.707,840.2 473,850C475.293,859.8 481.277,877.73 481,889C480.723,900.27 491.527,925.69 492,931C492.473,936.31 500.266,947.11 503,952C505.734,956.89 516.309,957.95 521,961C525.691,964.05 528.242,970.15 530,975C531.758,979.85 533.086,984.17 534,989C534.914,993.83 537,1005 537,1005L542,1014L554.586,1008.19C555.496,1001.71 558.553,995.35 563,986C569.793,971.72 574.273,960.26 594,941C613.727,921.74 626.566,918.66 638,906C649.434,893.34 647.789,888.3 654,874C660.211,859.7 662.313,853.97 668,834C673.687,814.03 672.547,799.06 679,782C685.453,764.94 688,739 688,739C688,739 665.094,765.75 632,776C598.906,786.25 568,772 568,772C568,772 601.555,764.16 621,754C640.445,743.84 647.789,705.72 621,713C594.211,720.28 579,709 579,709C579,709 621.516,697.43 629,691C636.484,684.57 633.766,676.39 612,680C590.234,683.61 573.008,667.64 556,672C538.992,676.36 567,692 567,692C567,692 553.934,691.63 540,685L538.974,684.45C530.522,683.81 519.134,682.33 512,679C499.516,673.17 466,656 466,656L442,660L430,681L433,705L439,735C439,735 422.234,726.88 413,699C403.766,671.12 399,621 399,621L440,597L468,589L489.376,592.184L490,592C498.709,589.252 513.882,590.652 529.861,590.265ZM1045.66,595.314C1037.62,598.446 1030.11,600.898 1022,601C1006.17,601.199 970.48,598.207 975,603C979.52,607.793 984.74,601.34 1000,609C1015.26,616.66 1015.83,619.742 1017,629C1018.17,638.258 1018,642 1018,642C1018,642 979.07,665.54 957,671C934.93,676.46 903,674 903,674C903,674 926.19,696.36 973,688C1019.81,679.64 1041,670 1041,670C1041,670 1025.06,699.91 1005,717C984.94,734.09 996.25,749.44 975,757C953.75,764.56 915.03,763.94 891,758C866.965,752.06 848,738 848,738C848,738 849.477,775.84 861,803C863.929,809.9 868.324,817.02 873.784,824.25C878.917,827.41 895.458,846.46 903,850C912.93,854.66 926,865 926,865L946,879L958,896L985,912L1014,932L1032,932L1056,924L1067,897L1098,889L1102.03,874.68C1102.32,868.17 1106,858 1106,858C1106,858 1106.48,853.04 1106.97,847.67L1106.92,829.15C1106.92,821.9 1106.92,814.65 1106.91,807.39L1106.96,798.26C1106.18,791.49 1105.19,784.61 1105,782C1104.66,777.32 1103.1,763.41 1094,755L1084,758L1074,760C1074,760 1051.28,761.1 1043,761C1034.72,760.9 1007.58,757.91 1002,758C996.51,758.09 1049.09,749.66 1059.53,748.07L1041,749L1075,712L1092,675C1092,675 1097.91,672.6 1107,656L1114,634L1115,610L1085,593L1045.66,595.314ZM899.138,578.647C886.243,577.934 875,577 875,577L887,552L929,549L964,548C964,548 982.56,531.367 991,526C999.44,520.633 990,500 990,500L964,487L930,489L894,506L859,520C859,520 820.625,525.688 812,528C803.375,530.313 771.617,535.234 763,536C754.383,536.766 728,537 728,537L707,530L679,518L649,497L590,477L574,502C574,502 589.219,519.773 598,521C606.781,522.227 624,539 624,539C624,539 644.797,546.375 655,548C665.203,549.625 666,574 666,574L706,598C706,598 691.78,598.569 672.476,599.265C679.138,600.386 699.014,604.565 708,606C714.57,607.049 719.382,609.457 724.032,611.792C740.056,615.149 761.815,617.876 781,613C805.609,606.746 835.664,593.477 893,580C894.99,579.532 897.036,579.08 899.138,578.647Z" style="fill:rgb(244,209,194);fill-rule:nonzero;"/>
      <path d="M873.079,1072.52L870,1073C887.234,1058.17 902,1039 902,1039C884.198,1029.79 854,1015 854,1015L884,1010L865,970L939,993L960,1010L962,1036C943.63,1048.1 924,1059 924,1059L909,1066C909,1066 896.526,1069.14 890,1070L889.124,1070.12L900,1081L908,1104L906,1123L888,1132L872,1138L830,1147L803,1150L776,1148L749,1143L724,1137L694,1142L687,1117L688,1103L678.791,1089.91L673,1091L664,1077C664,1077 659.264,1065.74 654,1059C648.736,1052.26 641.842,1045.97 635,1039C628.158,1032.03 619,1026 619,1026L616,1011L622,998C622,998 639.714,989.43 656,985L653,1005C653,1005 659.077,1010.69 666,1011C672.923,1011.31 684,1012 684,1012L699,1044L671,1051L673,1067L682.556,1079.54C691.989,1082.02 703.773,1085.23 709,1087C718.4,1090.19 741.641,1095.4 753,1095C764.359,1094.6 794.661,1097.45 807,1096C819.339,1094.55 844.467,1088.08 854,1085C859.036,1083.38 866.842,1077.61 873.079,1072.52ZM744,930C734.397,931.19 724.685,938.26 700,932C675.315,925.74 684.647,932.52 668.096,941.35C652.415,949.71 635.827,971.94 627.139,944.02C624.5,935.55 596,955 596,955C596,955 622.313,930.49 633,908C643.687,885.51 641.497,881.38 646,871C650.503,860.62 666,832 666,832C666,832 644.062,880.17 663,890C681.938,899.83 679.406,882 698,891C716.594,900 722.637,902.87 727,912C731.363,921.13 753.603,928.81 744,930ZM905,895C924.63,894.67 968,906 968,906C968,906 913.09,871.75 895,855C876.909,838.25 848,818 848,818C848,818 869.033,854.48 860,875C850.967,895.52 842.095,882.62 834,890C818.282,904.32 791.211,915.37 795,929C795,929 848.407,943.12 869,920L905,895ZM1170,746C1170,746 1159.44,754.29 1156,762C1152.56,769.71 1152.57,772.65 1152,782C1151.43,791.35 1150,807 1150,807L1176,796L1188,783L1196,766C1196,766 1199.71,767.5 1191,794C1182.29,820.5 1176.67,850.71 1156,857C1135.33,863.29 1126,861 1126,861C1126,861 1127.17,846.3 1125,838C1122.83,829.7 1139.68,769.59 1150,748C1160.32,726.41 1170,746 1170,746ZM816.179,667.74C814.802,662.999 813.712,658.381 813,654C806.988,617.002 820,601 820,601L849,589L875,584C875,584 908.934,582.155 916,581C923.07,579.845 1012.21,557.101 1023,590C1023,590 1037.81,600.212 1031,615C1024.19,629.788 1014,637 1014,637C1014,637 995.82,642.213 978,651C960.18,659.788 929,665 929,665C929,665 909.546,685.82 936,689C962.45,692.18 975,692 975,692C975,692 955.64,700.92 919,702C882.355,703.08 858.114,691.06 853,705C847.886,718.94 852,745 852,745C852,745 846.858,736.58 840.272,724.11L844,733L849,773C849,773 837.744,757.66 830,740C822.256,722.34 803.843,710.79 798,699C792.157,687.21 801.384,660.842 782,644L780.791,643.055C770.21,640.655 758.722,639.188 752,644C737.758,654.194 732.068,662.139 728,677C723.932,691.86 723.381,719.36 714,738C704.619,756.64 703.02,758.57 697,768C690.98,777.43 675,808 675,808L678.587,761.36C666.898,767.79 614.083,794.56 550,792C477.237,789.09 433,747 433,747C446.445,751.94 533.195,777.18 579,777C619.249,776.84 667.52,763.84 678.64,760.68L679,756L689,720C689,720 690.985,697.47 691.083,687.42L690,687C676.973,683.11 664.112,681.47 657,688C649.888,694.53 615.35,708.96 586,711C586,711 626.067,694.69 618,682C609.933,669.31 594,667 594,667L579,655L583,625C583,625 543.363,633.411 533,639C522.637,644.589 517.353,645.744 511,634C504.647,622.256 490.071,615.517 502,609C513.929,602.482 565.119,600.165 588,598C610.881,595.835 656.922,596.776 682,605C704.144,612.262 708.78,618.892 709.761,630.231L710,630C715.98,624.874 724.919,617.648 732,617C739.082,616.352 771,616 771,616L791,620C791,620 807.217,627.575 807.503,638.919L809,640C809,640 812.658,657.995 816.179,667.74ZM886,762C886,762 982.75,790.86 1037,769C1091.25,747.14 1112,727 1112,727C1112,727 991.67,773.25 886,762ZM1189,600L1176,624L1181,639C1179.3,655.019 1177,680 1177,680L1156,717C1151.65,704.21 1151,688 1151,688L1145,673C1134.02,655.956 1142,628 1142,628L1140,601L1148,588L1189,600ZM432,592C432,592 434.317,518.493 471,489C507.683,459.506 539.713,449.149 582,463C624.287,476.851 659.315,505.21 762,490C864.685,474.79 923.93,461.848 974,452C1024.08,442.152 1032.08,464.926 1048,480C1063.92,495.074 1070.68,516.599 1074,532C1077.32,547.401 1064,573 1064,573C1064,573 1091.74,576.021 1102,577C1112.27,577.979 1112,534 1112,534L1121,509C1152.03,520.172 1177,529 1177,529C1177,529 1141.83,460.839 1105,444C1068.17,427.161 920.99,362.975 885,357C849.009,351.025 707.885,328.975 654,340C600.115,351.025 502.709,372.468 474,381C445.291,389.532 416.264,408.899 412,422C407.736,435.101 407.536,465.107 398,482C388.464,498.893 406,611 406,611L432,592Z" style="fill:rgb(223,189,174);fill-rule:nonzero;"/>
      <path d="M675,1013C654.358,1011.64 651,1008 651,1008L652,991C652,991 653.929,975.72 646,978C638.071,980.28 622,997 622,997C622,997 610.923,1006.18 612,1013C613.077,1019.82 615.797,1027.52 624,1031C632.203,1034.48 639.465,1040.07 645,1044C661.092,1055.42 663,1056 663,1056L683,1040L675,1013ZM897,1009L885,984C885,984 896.403,982.05 905,985C913.6,987.95 932,1002 932,1002L945,1018L945,1032L927,1040L907,1043L879,1023L897,1009ZM627,926C627,926 655.459,902.88 673,904C690.541,905.12 715,907 715,907C715,907 715.204,897.54 707,886C695.07,869.22 672,883 672,883C672.203,882.51 671.179,859.67 672.823,848.57C675.298,831.85 682,807 682,807C682,807 644.884,855.54 643,873C641.116,890.46 627,926 627,926ZM830,890C830,890 857.657,910.99 872,887C886.343,863.01 891.147,872.11 902,876C912.85,879.89 949,896 949,896C949,896 919.08,865.11 894,850C868.921,834.89 846,817 846,817C846,817 855.082,844.48 854,865C852.918,885.52 845.524,891.88 830,890ZM596,611C605.705,611.76 619,616 619,616L623,592C623,592 640.139,599.831 650,600C659.861,600.169 678,602 678,602L693,608C693,608 703.469,609.637 706,628C708.531,646.363 709,664 709,664L695,663L676,662L660,656C660,656 650.184,653.763 643,651C635.816,648.237 586.295,610.24 596,611ZM933,585L911,598C904.377,610.78 919,610 919,610C919,610 899.525,621.341 890,633C880.475,644.659 875,651 875,651C857.198,660.887 850.297,660.467 842,661C833.703,661.533 815,662 815,662C815,662 811.484,646.423 810,640C808.516,633.577 818,610 818,610L830,597C830,597 898.344,575.113 933,585ZM430,523L436,502L452,479L484,472L522,468L564,463L597,454L629,450L654,448L683,447L709,447L739,445L780,443L821,438L871,431L920,426C920,426 943.31,424.453 954,426C964.69,427.547 1009,432 1009,432L1050,446L1073,466L1092,482L1118,493L1147,524C1147,524 1145.04,537.945 1152,548C1158.96,558.055 1180,579 1180,579C1180,579 1189.96,468.547 1178,446C1166.04,423.453 1074.89,342.32 1052,334C1029.11,325.68 848.445,280.75 816,279C783.555,277.25 612.195,293.961 578,303C543.805,312.039 435,408 435,408L412,482C412,482 406.383,538.633 406,548C405.617,557.367 405,608 405,608L430,523Z" style="fill:rgb(211,172,154);fill-rule:nonzero;"/>
      <path d="M811,907L845,898C845,898 845.277,889.32 834,891C822.723,892.68 811,907 811,907ZM675,899C675,899 685.066,878.36 698,887C710.934,895.64 718,907 718,907L703,906C703,906 680.809,910.37 675,899ZM1192,637C1192,637 1180.25,653.41 1186,670C1191.75,686.59 1199.01,693.34 1189,716C1178.99,738.66 1149,764 1149,764L1164,726C1164,726 1171.79,646.207 1192,637ZM415,711C415.125,717.41 417.035,730.52 414,737C410.965,743.48 406,760 406,760C406,760 408.969,724.15 407,715C405.031,705.85 393.391,672.32 391,668C388.609,663.68 391,648 391,648C391,648 413.738,646.543 415,711ZM518,643C518,643 527.117,615.059 555,609C582.883,602.941 616.359,600.348 636,610C655.641,619.652 668,626 668,626L668,602L704,617C704,617 714.383,625.523 714,631C713.617,636.477 712,661 712,661L710,670C710,670 686.695,659.875 679,660C671.305,660.125 651,655 651,655L630,660L518,643ZM939,611C939,611 917.94,607.687 902,614C886.063,620.312 866,620 866,620L867,583C867,583 847.519,594.352 839,600C830.48,605.648 821.141,607.184 820,615C818.859,622.816 817.266,624.223 818,635C818.734,645.777 823,668 823,668C833.863,660.27 856,657 856,657L873,650L886,646L939,611Z" style="fill:rgb(170,146,136);fill-rule:nonzero;"/>
    </g>
    <g id="stubble">
      <path d="M480,1063L476,1054C476,1054 471.881,1050.23 470,1046C468.119,1041.77 464,1030 464,1030C464,1030 464.074,1024.15 463,1021C461.926,1017.85 460.621,1016.27 459,1012C457.379,1007.73 453.779,1000.19 454,997C454.221,993.81 453.549,988.63 453,984C452.451,979.37 449.906,975.31 449,971C448.094,966.69 445.822,961.35 445,957C444.178,952.65 444.937,945.83 445,941C445.062,936.17 442.223,928.5 442,925C441.777,921.5 441.127,916.71 440,912C438.873,907.29 439.148,902.79 438,897C436.852,891.21 436.854,883.97 436,880C435.147,876.03 436.158,872.25 436,868C435.842,863.75 436,856 436,856C436,856 436.602,848.71 436,846C435.398,843.29 435,836 435,836L433,810L431,802C431,802 431.906,795.75 431,793C430.094,790.25 433.275,777.59 432,775C430.725,772.41 433,767 433,767C433,767 437.621,824.83 438,827C438.379,829.17 437.938,845.96 441,853C444.062,860.04 445,865 445,865L447,874L455,859C455,859 455.117,863.96 453,873C450.883,882.04 451,889 451,889C451,889 450.779,889.31 455,883C455,883 453.832,889.71 454,894C454.168,898.29 454,902 454,902C454,902 458,898.18 460,894C462,889.82 462,886 462,886C462,886 466.338,891.44 463,902C459.662,912.56 459,927 459,927C459,927 462.022,916.92 464,914C465.979,911.08 471,908 471,908C471,908 467.643,914.13 467,919C466.357,923.87 466,928 466,928L475,917L475,932C474.432,937.51 474,939 474,939L480,937C480,937 478.57,943.08 479,945C479.43,946.92 487,938 487,938L485,948L492,949L493,957L493,969L495,977L498,970L500,964L500,974L511,963L508,972L508,976L514,971L521,960L521,971L522,978L521,990L521,997L528,988L526,995L527,1001C527.189,1006.23 531,1002 531,1002L532,1007L536,1015L536,1022C538.148,1026.04 544,1034 544,1034L549,1044L552,1049L558,1054L561,1062L568,1066L573,1069L576,1072L578,1066L579,1061L582,1067L583,1074L585,1081L589,1084L591,1090C591,1090 595.185,1091.59 595,1094C594.814,1096.41 600,1097 600,1097L603,1106L607,1104L611,1111L614,1107L619,1112L618,1117C619.012,1121.49 620,1123 620,1123L625,1120L625,1127L631,1131L636,1132L638,1140L643,1139L648,1135C648.506,1139.89 650,1146 650,1146L659,1145L658,1151L659,1156C663.674,1156.4 666,1158 666,1158L672,1153C671.811,1157.6 673,1166 673,1166L680,1163L680,1168L689,1165L691,1170L699,1175L704,1172L705,1179C706.578,1183.55 707,1184 707,1184L712,1181L713,1186C715.59,1190.26 719,1190 719,1190L721,1182L724,1189L727,1194L731,1190C731.127,1194.43 733,1197 733,1197L737,1193L742,1198L749,1197L752,1202L761,1203L766,1201L771,1195L774,1187L778,1191L785,1186L788,1191L795,1187L796,1194L802,1196L812,1200L817,1201L823,1198L827,1192L831,1195L835,1191L842,1191L849,1186L852,1184L858,1185L862,1181L868,1180L883,1173L884,1168L889,1169C888.746,1164.06 891,1163 891,1163L897,1164L899,1157L909,1156L912,1151L917,1149L921,1149L924,1141L931,1141L936,1133L942,1128L944,1121C948.61,1120.72 950,1119 950,1119C950.57,1114.17 955,1109 955,1109L962,1094L967,1090L967.15,1089.96C967.55,1087.35 968.21,1084.34 969,1081L969.98,1079.23L970,1079L970.14,1078.94C972.12,1075.46 976.33,1067.76 981,1058L988,1049.44L988,1047L989.34,1047.81L990,1047L993,1025L997,1015L994,999L1000,985L1013,985L1014.3,986.25C1017.66,982.6 1020.69,978.27 1021,977C1021.47,975.06 1030,970 1030,970C1034.93,965.51 1036.63,957.92 1039,956C1041.37,954.08 1048,950 1048,950C1048,950 1053.43,945.68 1054,943C1054.57,940.32 1060,936 1060,936L1068,934L1075,919L1076,913L1081,913L1082,903L1084,888L1089,894L1092,876L1095,880C1095.76,875.06 1101.12,870.61 1101,868C1100.88,865.39 1103,858 1103,858L1105,862C1105,862 1108.72,860.56 1109,858C1109.28,855.44 1110,845 1110,845L1117,843L1125,825C1124.81,821.34 1129,809 1129,809L1133,801L1134,788L1136,779L1140,772C1140,772 1135.08,798.32 1135,810C1134.92,821.68 1131,855 1131,855L1134,860L1137,866L1137,881L1136,886L1136,893L1134,907L1130,911L1135,921L1131,924L1135,931L1129,932L1126,944L1126,956L1123,962L1124,969L1123,975L1121,992L1116,995L1118,1002L1119,1009L1118,1013L1117,1025L1116,1032L1111,1032L1109,1042L1101.48,1058.42C1100.55,1076 1101,1115 1101,1115L1106,1134L1109,1153C1114.06,1172.78 1110,1187 1110,1187C1110,1187 1088.44,1178.39 1078,1178C1067.56,1177.61 1059,1186 1059,1186L1048,1213L1032,1233L1013,1257L999,1284C999,1284 984.63,1307.19 981,1318C977.37,1328.81 956,1359 956,1359L937,1385C937,1385 909.477,1405.19 891,1416C872.523,1426.81 848.148,1430.56 840,1438C831.852,1445.44 817.391,1453.09 801,1452C784.609,1450.91 744,1438 744,1438L712,1411C712,1411 687.039,1387.95 681,1376C674.961,1364.05 662.867,1338.52 653,1329C643.133,1319.48 614,1288 614,1288L594,1265L572,1244L552,1218L542,1184L554.454,1170.92C551.93,1167.94 548.591,1164.24 547,1163C544.752,1161.25 541,1154 541,1154L537,1146L532,1140C532,1140 526.322,1133.07 524,1129C521.678,1124.93 518.723,1120.5 516,1118C513.277,1115.5 512.828,1112.58 511,1110C509.172,1107.42 503.227,1099.37 502,1097C500.773,1094.63 496.238,1089.54 495,1087C493.762,1084.46 491.48,1080.18 490,1078L480,1063ZM678,1066C695.848,1073.36 704,1076 704,1076L728,1078C742.201,1087.55 754,1085 754,1085L777,1091L795,1079L812,1084L830,1080L850,1075L873,1062L888,1054L895,1063L880,1082L873,1092L871,1106L851,1111C834.334,1116.11 825,1120 825,1120C825,1120 812.478,1115.45 806,1116C799.522,1116.55 791,1117 791,1117C791,1117 785.665,1112.47 780,1114C774.335,1115.53 764,1125 764,1125L748,1119L725,1117C710.231,1111.55 701,1114 701,1114L692,1100C677.799,1083.98 678,1083 678,1083L664,1075C664,1075 664.361,1060.38 678,1066ZM704,921L691,924C679.125,932.3 675,927 675,927L665,931L655,932L641,929L626,927L614,936C604.906,944.41 597,951 597,951L588,958C582.316,969.37 580,973.82 578,978C576,982.18 571,992 571,992L568,1002L568,1025L573,1033L571,1042L582,1046C584.902,1055.32 591,1069 591,1069L594,1061L601,1051L612,1042C608.465,1032.79 621,1025 621,1025L615,1020L618,1010L626,1000L643,995L658,984L669,989L683,983L705,982L724,991L736,990L745,988L747,979L761,972L776,980L792,984L807,980L823,982L834,986L849,984C851.273,992.64 860,995 860,995L871,993L893,992L906,1001L922,998L932,1005L934,1017L937,1025L949,1029L961,1041L967,1049C970.16,1036.95 971,1025 971,1025L975,1012L974,1002L972,992C970.23,982.91 969,973 969,973L963,961L948,955L938,944C938,944 933.13,934.96 929,935C924.87,935.04 922.37,934.85 918,935C913.63,935.15 908,928 908,928C908,928 899.234,926.92 895,927C890.766,927.08 881,922 881,922L864,926C864,926 854.813,925.26 851,926C847.188,926.74 840,923 840,923C840,923 837.172,918.54 831,919C824.828,919.46 815,918 815,918C804.516,915.5 798,921 798,921C787.895,928.84 788.519,929.46 784,931C779.48,932.54 774,936 774,936L763,937C751.758,933.93 746,933 746,933C746,933 739.277,930.54 735,930C730.723,929.46 725,927 725,927C714.012,919.95 704,921 704,921Z" style="fill:rgb(216,187,171);fill-rule:nonzero;"/>
      <path d="M509,1071L527,1086L542,1101L559,1112L576,1107C578.465,1089.1 579,1083 579,1083L600,1100C613.071,1112.96 626,1115 626,1115L640,1133L664,1152L676,1165L689,1175L707,1178C722.911,1189.76 731,1192 731,1192L746,1190L765,1196C779.201,1192.42 775.302,1183.91 790,1187C804.698,1190.09 810,1192 810,1192L834,1193L852,1184L868,1179L882,1173L896,1160L912,1156L927,1144L947,1130L961,1114L973,1096L978,1081L988,1067L997,1082L999,1101L1005,1117L1031,1117L1050,1112L1090,1059L1101,1048L1104,1092L1105,1111L1095,1116C1095,1116 1082.4,1126.87 1078,1133C1073.6,1139.12 1060,1157 1060,1157L1038,1184L1011,1216L982,1248L962,1270C947.23,1278.52 935,1283 935,1283L921,1289C921,1289 912.24,1296.36 906,1308C899.759,1319.64 882,1330 882,1330L856,1335L836,1348L807,1349L783,1337L759,1333L721,1331L698,1322L678,1317C678,1317 668.229,1308.18 661,1303C653.771,1297.82 639,1285 639,1285L623,1265L595,1245L577,1224C563.748,1210.19 552,1196 552,1196L547,1213L540,1179L538,1156L539,1139C539,1139 498.588,1075.77 509,1071ZM580,1037L568,1021C562.888,1006.86 571,989 571,989L576,975C587.741,961.53 589,958 589,958C589,958 588.578,961.26 590,970C591.422,978.74 599,980 599,980C613.769,970.8 622,965 622,965C622,965 633.956,953.82 641,950C648.044,946.18 656,946 656,946L672,948L686,940L695,941L707,936L717,926L740,929C754.013,931.21 764,934 764,934L781,933L795,926C810.53,921.06 821,920 821,920L842,926L862,933L881,948L902,958L922,964C937.72,977.46 952,983 952,983L956,961L973,977L974,989L972,1006L964,1020L900,984L872,976L847,970L818,970L795,971L780,974L768,979L748,976C748,976 729.297,980.65 722,982C714.703,983.35 686,981 686,981C686,981 670.923,971.21 661,976C651.077,980.79 639,987 639,987L625,999L619,1016L610,1029L600,1042L594,1056L580,1037Z" style="fill:rgb(203,173,156);fill-rule:nonzero;"/>
      <path d="M433,845L437,872L438,892C438,892 436.727,903.78 437,909C437.273,914.22 439,927 439,927C439,927 443.887,937.68 445,943C446.113,948.32 447.613,950.1 448,957C448.387,963.9 454.309,999.17 455,1004C455.691,1008.83 459.383,1015.44 460,1021C460.617,1026.56 467,1040 467,1040C467,1040 471.863,1046.56 473,1051C474.137,1055.44 476.938,1054.44 478,1060C479.062,1065.56 495,1088 495,1088L505,1099C510.684,1108.09 517,1118 517,1118C517,1118 522.129,1122.55 525,1127C527.871,1131.45 532,1141 532,1141L552,1167L564,1177L576,1189L588,1202C599.242,1211.78 621,1235 621,1235L639,1244L649,1250L658,1259L673,1269L689,1276C689,1276 693.477,1279.47 701,1285C708.523,1290.54 727,1294 727,1294C727,1294 737.855,1297.64 743,1298C748.145,1298.36 767,1300 767,1300C767,1300 788.465,1298.89 793,1298C797.535,1297.11 819,1295 819,1295L839,1293L855,1290L871,1285C871,1285 885.937,1281.63 891,1278C896.062,1274.37 929,1259 929,1259L939,1249L954,1244C962.84,1234 971,1227 971,1227L995,1208L1014,1190L1028,1172L1057,1130C1057,1130 1067.17,1124.94 1068,1120C1068.83,1115.06 1072.31,1108.32 1076,1101C1079.69,1093.68 1088.29,1079.78 1091,1074C1093.71,1068.22 1101,1058 1101,1058C1101,1058 1104.41,1046.77 1105,1043C1105.59,1039.23 1108,1028 1108,1028L1118,1019C1120.53,1010.13 1123,1007 1123,1007L1123,961L1124,942L1129,920C1129,920 1130.52,907.62 1131,903C1131.48,898.38 1133,882 1133,882L1134,863L1133,854L1131,831L1131,821C1131,821 1129.19,841.8 1128,849C1126.81,856.2 1120.86,898.45 1120,903C1119.14,907.55 1117.64,917.81 1117,922C1116.36,926.19 1115,947 1115,947L1110,967C1100.53,961.77 1103,974 1103,974C1103,974 1101.43,985.07 1101,989C1100.57,992.93 1102.44,994.23 1101,1000C1099.56,1005.77 1100.21,1006.91 1099,1011C1097.79,1015.09 1094.78,1017.51 1093,1025C1091.22,1032.49 1083,1020 1083,1020L1081,1041L1079,1055L1077,1066L1069,1056L1071,1076L1055,1097L1053,1108L1044,1093L1036,1120L1029,1141L1024,1152L1013,1143L1011,1154L1002,1169L994,1183L992,1173L979,1192L970,1203L967,1192C967,1192 970.37,1172.62 970,1168C969.63,1163.38 970,1146 970,1146L964,1166L961,1181C961,1181 958.16,1188.82 956,1194C953.84,1199.18 941,1218 941,1218L932,1196C930.36,1209.98 927,1222 927,1222C922.71,1233.37 916,1234 916,1234L912,1223C909.094,1234.94 904,1243 904,1243L894,1224L894,1240L891,1249L884,1251L877,1239L869,1250L861,1239L856,1257L843,1248L827,1262L816,1252L812,1265L802,1257C792.781,1254.27 785,1262 785,1262L774,1251L765,1260L748,1255C737.895,1253.64 732,1257 732,1257L720,1249L711,1245L697,1233C687.148,1228.45 684,1235 684,1235L667,1218L653,1207C653,1207 653.434,1200.93 646,1189C638.566,1177.07 635.813,1170.43 637,1175C638.187,1179.57 639,1195 639,1195L634,1201L627,1186L625,1197C625,1197 610.906,1179.41 608,1175C605.094,1170.59 603,1170 603,1170L596,1164C594.355,1171.39 586,1160 586,1160L575,1140C575,1140 567.688,1144.01 566,1140C564.313,1135.99 556,1111 556,1111L546,1111L543,1103L527,1080L518,1066C518,1066 511.687,1068.36 508,1055C504.313,1041.64 503.453,1030.89 503,1037C502.547,1043.11 493.074,1032.62 492,1029C490.926,1025.38 486.824,1002.93 483,1005C479.176,1007.07 476,981 476,981L472,968C472,968 466.57,943.68 467,939C467.43,934.32 461,924 461,924L458,915L453,903L448,889L450,879L446,868L433,845ZM666,1069L681,1087L690,1095L691,1110L699,1112L713,1119C713,1119 722.273,1109.89 729,1113C743.394,1119.65 750,1120 750,1120L768,1126L788,1115L812,1116L831,1113L848,1116L864,1107L881,1101L884,1084L891,1071L887,1059L871,1078L852,1088L838,1100C823.799,1092.67 817,1095 817,1095L796,1097L775,1101L750,1097L727,1098L707,1086C689.578,1081.57 666,1069 666,1069ZM587,1058L577,1043L568,1035L566,1019L563,1006L576,1025L580,1013L583,1025L587,1006L592,1009L601,995L606,987L608,1000L615,989L616,974L622,958L631,946L626,961L631,971C631,971 639.898,965.74 641,962C642.102,958.26 647,947 647,947L657,940L655,949L650,962L650,969L663,953L661,963L672,960L678,950L693,942L690,957L706,940L702,951L701,960L714,947L711,957C712.137,967.57 722,955 722,955L731,968L744,955C743.113,964.09 745,966 745,966L757,968L763,975L752,977L744,984L733,988L721,990C710.266,985.68 704,982 704,982L690,985C680.777,985.68 675,983 675,983L660,985C650.273,990 646,994 646,994C635.012,996.27 627,1004 627,1004C622.199,1015.6 622,1019 622,1019L615,1028L607,1034C605.609,1042.98 601,1049 601,1049L596,1040C593.852,1050.91 587,1058 587,1058ZM882,949L868,939L871,954C873.652,963.21 875,966 875,966L865,963C853.125,953.23 850,951 850,951L853,964L842,966L834,973L820,965L805,962L798,971C788.273,970.43 784,964 784,964L778,966L772,979C782.359,982.64 791,985 791,985L802,983L814,982L824,983L839,986L849,984C849,984 852.414,993.67 856,993C859.586,992.33 866,991 866,991L884,991L897,996C908.621,1001.68 922,999 922,999L932,1005L937,1014C937,1014 925.07,1013.54 933,1018C940.93,1022.46 950,1028 950,1028L957,1037L964,1043L972,1035L975,1020L972,1009L968,993L966,1000L966,1010L962,1007L952,991L948,983L944,971L938,962L940,981L940,990L930,976L924,967L913,957L902,950L911,966C901.144,968.57 892,957 892,957L882,949ZM912.63,965.67L911,966L912,974C912,974 918.78,965.91 913.87,965.61L912.63,965.67Z" style="fill:rgb(180,150,134);fill-rule:nonzero;"/>
    </g>
    <g id="lips">
      <path d="M919,1014C919,1014 899.922,1012.86 891,1023C882.078,1033.14 871.795,1054.61 829,1058C786.205,1061.39 717.67,1070.7 695,1058C672.33,1045.3 654.238,1029.09 642,1026C629.762,1022.91 623,1024 623,1024C623,1024 636.975,1016.96 658,1024C679.025,1031.04 686.848,1033.54 704,1033C721.152,1032.46 726.785,1033.02 751,1032C775.215,1030.98 802.344,1030.12 825,1026C847.656,1021.88 861.605,1025.09 878,1018C894.395,1010.91 914.89,1008.14 919,1014Z" style="fill:rgb(225,165,183);fill-rule:nonzero;"/>
      <path d="M707,1040C707,1040 701.449,1045.59 714,1050C726.551,1054.41 742.418,1059.02 760,1057C777.582,1054.98 789.302,1054.9 801,1051C812.698,1047.1 817.575,1044.1 812,1042C806.424,1039.9 785.134,1039.54 771,1039C756.866,1038.46 740.671,1037.48 735,1037C729.329,1036.52 707,1040 707,1040Z" style="fill:rgb(236,185,201);fill-rule:nonzero;"/>
      <path d="M825.367,1025.03C827.207,1024.55 828.834,1024.17 830,1024C835.449,1023.19 839.245,1023.22 847,1022C854.755,1020.78 857.182,1020.53 870,1019C882.818,1017.47 883.371,1017.88 895,1015C906.629,1012.12 917,1012 917,1012C917,1012 905.266,1014.85 899,1017C892.734,1019.15 893.435,1019.85 884,1032C874.565,1044.15 860.887,1052.93 849,1056C837.113,1059.07 821,1059 821,1059C821,1059 842.824,1055.81 851,1052C859.176,1048.19 864.466,1039.71 867,1036C869.534,1032.29 865.561,1026.33 856,1027C848.754,1027.51 825.494,1028.97 814.658,1029.64C811.538,1030.52 808.512,1031.35 806,1032C796.039,1034.56 794.193,1035.84 776,1038C757.807,1040.16 731.835,1034.66 724,1034C716.165,1033.34 703,1036 703,1036C701.804,1035.92 701.21,1035.76 701.065,1035.54C699.503,1036 698.344,1036.5 698,1037C696.768,1038.8 694.285,1039.82 697,1043C699.715,1046.18 704.095,1051.62 709,1054C713.905,1056.38 717.969,1059.61 724,1060C730.031,1060.39 730.938,1061.48 734,1062C737.062,1062.52 749,1063 749,1063C749,1063 735.232,1065.63 722,1065C708.768,1064.37 696.664,1060.29 690,1055C683.336,1049.71 668.204,1040.77 657,1034C645.796,1027.23 640.857,1026.63 636,1025C631.143,1023.37 625,1023 625,1023C625,1023 628.057,1020.67 644,1022C659.943,1023.33 668.689,1029.8 680,1031C691.311,1032.2 690.099,1031.38 695,1032C697.554,1032.32 703.434,1032.46 708.049,1032.58C708.727,1032.38 709.389,1032.18 710,1032C714.776,1030.59 721.688,1032.54 729,1032C736.313,1031.46 744.255,1032.13 758,1031C771.745,1029.87 782.529,1030 800,1028C809.604,1026.9 818.923,1025.8 825.367,1025.03Z" style="fill:rgb(201,148,164);fill-rule:nonzero;"/>
      <path d="M627,1022C627,1022 644.958,1023.81 662,1018C679.042,1012.19 704.979,1000.76 727,1001C749.021,1001.24 767.275,1005.47 780,1004C792.725,1002.53 812.074,996.67 831,997C849.926,997.33 866.138,1003.84 883,1006C899.862,1008.16 921,1011 921,1011C921,1011 910.221,1009.69 899,1013C887.779,1016.31 879.022,1019.81 867,1022C854.978,1024.19 834.979,1024.51 821,1026C807.021,1027.49 756.987,1029.65 743,1032C729.013,1034.35 706.923,1036.73 693,1033C679.077,1029.27 669.85,1026.15 664,1025C658.15,1023.85 649.197,1023.88 647,1024C644.803,1024.12 625.104,1023.63 627,1022Z" style="fill:rgb(207,149,167);fill-rule:nonzero;"/>
      <path d="M693.945,1019.08C696.026,1020.63 721.913,1024.69 732.696,1022.14C743.479,1019.58 762.715,1021.26 769.019,1021.5C775.323,1021.74 785.389,1017.71 780.329,1016.07C775.27,1014.43 754.274,1013.57 739.886,1011.48C725.498,1009.38 724.102,1007.14 714.763,1008.09C705.423,1009.03 689.4,1015.69 693.945,1019.08ZM808,1019C814.6,1021.41 836.953,1015.13 840,1014C843.047,1012.87 847.437,1009.21 843,1008C838.562,1006.79 829.838,1004.75 824,1005C818.162,1005.25 799.914,1016.05 808,1019Z" style="fill:rgb(221,175,189);fill-rule:nonzero;"/>
      <path d="M690,1055C690,1055 703.159,1066.28 719,1066C734.841,1065.72 758.527,1066.04 783,1064C807.473,1061.96 834.464,1062.99 850,1057C865.536,1051.01 877,1040 877,1040C877,1040 852.906,1053.6 840,1056C827.094,1058.4 797.706,1060.34 780,1061C762.294,1061.66 728.19,1061.92 718,1062C707.81,1062.08 697.621,1059.89 690,1055ZM765,1029C762.87,1028.88 737.215,1028.4 722,1029C706.785,1029.6 697.089,1031.1 690,1028C682.911,1024.9 673.215,1024.72 676,1020C678.785,1015.28 677.047,1014.71 684,1012C690.953,1009.29 698.099,1005.61 704,1004C709.901,1002.39 722,1002 722,1002C722,1002 709.236,999.2 697,1004C684.764,1008.8 672.898,1014.52 663,1017C653.102,1019.48 643,1021 643,1021C643,1021 658.646,1023.69 666,1026C673.354,1028.31 679.805,1031.22 689,1032C698.195,1032.78 707.173,1032.46 715,1033C722.827,1033.54 767.13,1029.12 765,1029ZM828,1025C828,1025 848.316,1020.81 855,1017C861.684,1013.19 867.79,1006.93 862,1005C856.21,1003.07 841.979,1000.5 832,999C822.021,997.5 814.906,998.67 808,1000C801.094,1001.33 790,1003 790,1003C790,1003 815.074,994.16 830,996C844.926,997.84 859.348,998.91 873,1003C886.652,1007.09 885.201,1008.6 895,1009C904.799,1009.4 911.664,1011.12 910,1011C908.336,1010.88 898.254,1012.07 889,1015C879.746,1017.93 871.958,1018.78 866,1020C860.042,1021.23 831.495,1025 828,1025Z" style="fill:rgb(185,121,141);fill-rule:nonzero;"/>
      <path d="M625,1023C625,1023 645.307,1021.48 661,1026C676.693,1030.52 684.57,1033.84 692,1034C699.43,1034.16 721,1032 721,1032C721,1032 689.686,1033.72 680,1028C670.314,1022.28 656.57,1021.37 648,1021C639.43,1020.63 628.537,1018.85 625,1023ZM736,1032C736,1032 761.664,1032.84 789,1031C816.336,1029.16 818.338,1028.65 827,1027C835.662,1025.35 848,1022 848,1022C848,1022 807.453,1025.3 792,1027C776.547,1028.7 743.326,1027.57 736,1032ZM863,1020C863,1020 874.332,1020.29 890,1017C905.668,1013.71 908.838,1012.41 916,1014C923.16,1015.59 939,1022 939,1022C939,1022 940.94,1016.49 930,1013C919.06,1009.51 914.88,1005.59 905,1009C895.119,1012.41 867.799,1019.66 863,1020Z" style="fill:rgb(146,87,105);fill-rule:nonzero;"/>
    </g>
    <g id="eyes">
      <path d="M536,647C536,647 554.025,668.97 588,668C621.975,667.03 630.467,663.15 637,657C643.533,650.852 646,644 646,644C646,644 620.488,623.443 607,620C593.512,616.557 575.246,612.129 564,618C552.754,623.871 544.994,629.603 543,631C541.007,632.397 536,647 536,647ZM886,645C886,645 889.66,625.206 919,619C948.34,612.794 972.21,621.016 982,626C991.79,630.984 994,637 994,637C994,637 985.15,648.717 975,653C964.85,657.283 927.32,663.19 912,658C896.677,652.811 886,645 886,645Z" style="fill:white;fill-rule:nonzero;"/>
      <path d="M562,663C562,663 552.197,652.348 555,641C557.803,629.652 604.134,632.781 620,638C635.866,643.219 620,663 620,663C620,663 641.691,659.729 642,651C642.309,642.271 637.65,630.626 618,624C598.35,617.374 573.923,610.592 561,618C548.077,625.408 538,637 538,637L535,641C535,641 542.842,659.4 562,663ZM908,658C908,658 896.401,645.293 903,639C909.599,632.707 948.65,625.76 963,632C977.35,638.24 970,651 970,651C970,651 978.06,653.238 986,645C993.94,636.762 987.24,629.448 982,626C976.76,622.552 961.66,615.065 951,615C940.34,614.935 918.15,615.832 906,623C893.852,630.168 891.453,636.88 890,639C888.547,641.12 886,648 886,648C886,648 905.389,657.962 908,658Z" style="fill:rgb(201,194,194);fill-rule:nonzero;"/>
      <path d="M628,629C628,629 634.31,644.702 630,653C625.69,661.298 619,667 619,667C619,667 636.941,661.035 641,653C645.059,644.965 643.447,643.137 642,641C640.553,638.863 628,629 628,629ZM575.74,666.76C576.54,666.93 577,667 577,667L575.74,666.76C570.844,665.76 553.197,661.395 550,650C546.28,636.742 550,629 550,629L538,637L534,643C534,643 542.635,660.568 575.74,666.76ZM910,657C910,657 899.447,654.189 900,641C900.553,627.811 903,626 903,626C903,626 899.173,625.435 895,631C890.827,636.565 886.31,643.241 886,645C885.69,646.759 889,649 889,649C889,649 904.147,657.264 910,657ZM968,654C968,654 981.59,651.684 986,646C990.41,640.316 991.78,635.148 990,634C988.22,632.852 971,624 971,624C971,624 983.36,632.9 982,640C980.64,647.1 968,654 968,654Z" style="fill:rgb(175,126,126);fill-rule:nonzero;"/>
      <path d="M595,617C595,617 585.748,618.028 579,625C572.252,631.972 572.032,637.995 572,648C571.968,658.005 581.674,664.43 591,667C600.326,669.57 620.821,666.93 626,662C631.179,657.067 637.316,642.32 630,635C622.684,627.68 599.357,616.006 595,617ZM922,659C922,659 912.58,657.467 908,646C903.423,634.533 906.829,624.452 914,620C921.17,615.548 940.93,614.274 953,617C965.07,619.726 973,633.91 972,641C971,648.09 966.22,655.927 955,659C943.78,662.073 922,659 922,659Z" style="fill:rgb(91,118,137);fill-rule:nonzero;"/>
      <path d="M594,632C594,632 584.422,632.212 583,634C581.578,635.788 580,640 580,640C580,640 579.033,644.54 579,646C578.967,647.46 580,650 580,650L585,652L589,651L589,655L590,657L594,659L600,660L606,660L610,659L614,657C614,657 615.874,653.379 617,654C618.126,654.621 623,654 623,654L625,648L626,643C626,643 622.527,639.816 621,640C619.473,640.184 617,638 617,638L613,635L594,632ZM929,632C927.33,632.286 918,633 918,633C915.35,635.918 914,641 914,641L914,644L923,645L920,653C920,653 922.35,655.204 924,655C925.65,654.796 929,655 929,655L933,655L937,652L941,656C941,656 944.37,656.522 946,656C947.63,655.478 951,655 951,655C951,655 953.03,648.926 955,649C956.97,649.074 962,649 962,649C962,649 964.77,646.876 965,645C965.23,643.124 965,638 965,638C965,638 964.16,633.713 962,633C959.84,632.286 959.09,632.092 957,632C954.91,631.908 930.67,631.713 929,632Z" style="fill:rgb(136,174,201);fill-rule:nonzero;"/>
      <path d="M607,633C607,633 600.34,630.637 596,637C591.66,643.363 592.066,650.256 599,654C605.934,657.744 615.024,651.706 617,646C618.976,640.294 615.842,636.013 607,633ZM946,629C946,629 939.8,625.751 934,631C928.2,636.249 928.95,642.461 932,647C935.05,651.539 945.91,651.566 950,648C954.09,644.435 958.22,631.103 946,629Z" style="fill:rgb(61,84,101);fill-rule:nonzero;"/>
      <path d="M587,642C587,642 594.653,638.581 596,641C597.347,643.419 597.632,647.436 597,648C596.368,648.563 595.158,650.044 593,650C590.842,649.956 583.021,645.013 587,642ZM935,630L935,640C929.82,644.262 925,641 925,641L922,635C922,635 925.91,626.533 935,630Z" style="fill:white;fill-rule:nonzero;"/>
    </g>
    <g id="line">
      <path d="M532.172,1136.51C508.894,1108.25 477.663,1065.26 466,1026C446.461,960.23 439.559,904.53 436,869C432.441,833.47 431,751 431,751C431,751 440.191,839.81 444,878C447.809,916.19 466.93,1021.19 492,1063C517.07,1104.81 553.707,1141.38 570,1168C586.293,1194.62 627.141,1239.54 655,1252C655,1252 609.496,1241.86 560,1168C560,1168 554.287,1162.15 545.616,1152.3C546.994,1170.79 550.49,1216.87 554,1257C558.512,1308.58 563.258,1338.94 586,1378C608.742,1417.06 681,1456 681,1456C708.832,1471.75 748.535,1484.06 778,1485C807.465,1485.94 830.578,1480.48 848,1474C865.422,1467.53 889.314,1456.49 900,1443C910.686,1429.51 1012.26,1316.42 1037,1285C1061.74,1253.58 1104.52,1187.1 1107,1170C1109.48,1152.9 1101.23,1110.93 1101,1096C1100.85,1086.06 1100.01,1067.61 1099.47,1056.4C1086.78,1094.36 1049.66,1147.49 1027,1176C1001.52,1208.06 948,1247 948,1247C948,1247 1015.04,1179.56 1036,1153C1056.96,1126.44 1089.11,1071.59 1096,1034C1102.89,996.41 1131.45,803.98 1136,800C1136,800 1110.76,997.34 1103.42,1040.6C1104.18,1047.58 1105.74,1063.97 1106,1083C1106.35,1108.33 1117.08,1149.12 1113,1177C1108.92,1204.88 1070.03,1251.73 1046,1284C1021.97,1316.28 910.361,1442.22 894,1458C877.639,1473.78 848.846,1481.78 821,1486C793.154,1490.22 771.268,1503.29 693,1469C614.732,1434.71 590.43,1396.15 572,1369C553.57,1341.85 552.094,1301.77 547,1254C542.924,1215.78 535.128,1158.06 532.172,1136.51ZM970.23,1202.43C960.31,1215.66 908.866,1278.43 822,1285C759.77,1289.71 723.847,1303.45 635,1228C635,1228 686.844,1312.95 800,1298C908.039,1283.73 919.1,1272.82 970.23,1202.43C971.41,1200.87 972,1200 972,1200L970.23,1202.43ZM627,1012L624,1038C624,1038 610.453,1022.23 627,1012ZM927,1006L943,1031C943,1031 945.06,1010.55 927,1006ZM680,894C680,894 690.385,885.6 700,893C709.615,900.4 732.279,932.36 762,934C791.721,935.64 798.932,921.62 812,907C825.068,892.38 837.5,890.39 843,894C843,894 835.5,884.62 824,892C812.5,899.38 790.617,928.38 775,930C759.383,931.62 735.354,923.44 721,908C706.646,892.56 691.936,875.02 680,894ZM687,903C687,903 673.984,906.17 663,893C652.016,879.83 655.754,850.02 671,824C671,824 655.891,861.41 664,880C672.109,898.59 671.527,896.24 687,903ZM840,899C840,899 865.484,897.71 868,873C870.516,848.29 845,817 845,817C845,817 864.633,856.25 863,874C861.367,891.75 840,899 840,899Z" style="fill:rgb(146,116,105);fill-rule:nonzero;"/>
      <path d="M627,1012L624,1038C624,1038 610.453,1022.23 627,1012ZM927,1006L943,1031C943,1031 945.06,1010.55 927,1006ZM680,894C680,894 690.385,885.6 700,893C709.615,900.4 732.279,932.36 762,934C791.721,935.64 798.932,921.62 812,907C825.068,892.38 837.5,890.39 843,894C843,894 835.5,884.62 824,892C812.5,899.38 790.617,928.38 775,930C759.383,931.62 735.354,923.44 721,908C706.646,892.56 691.936,875.02 680,894ZM687,903C687,903 673.984,906.17 663,893C652.016,879.83 655.754,850.02 671,824C671,824 655.891,861.41 664,880C672.109,898.59 671.527,896.24 687,903ZM840,899C840,899 865.484,897.71 868,873C870.516,848.29 845,817 845,817C845,817 864.633,856.25 863,874C861.367,891.75 840,899 840,899ZM1226.25,615.246C1226.13,599.536 1222.22,588.286 1211,593C1194.11,600.098 1172.32,610.176 1166,622C1166,622 1183.44,581.41 1210,582C1236.56,582.59 1241.25,625.727 1230,656C1218.75,686.27 1208.12,702.64 1208,716C1207.88,729.36 1211.3,756.12 1195,791C1178.7,825.88 1176.27,835.68 1167,848C1157.73,860.32 1130.27,876.9 1126,849C1126,849 1140.06,866.23 1153,851C1165.94,835.77 1184.77,807.45 1195,775C1205.23,742.55 1200.33,711.1 1200,693C1199.69,675.72 1198.15,639.459 1198.01,636.231C1192.38,642.519 1187.28,650.625 1184,661C1175.64,687.48 1168.41,719.49 1165.04,735.25C1164.86,738.55 1164.33,741.16 1163.33,743.37L1163,745L1162.92,744.2C1162.4,745.21 1161.76,746.13 1161,747C1155.46,753.34 1141,773 1141,773C1141,773 1143.13,746.37 1151,734C1158.87,721.63 1149.63,679.71 1161,668C1161,668 1160.36,683.32 1162.72,705.5C1166.95,672.56 1181.04,607.874 1226.25,615.246ZM390,645C390,645 377.824,651.676 386,674C394.176,696.32 402.242,711.02 402,733C401.758,754.98 396.813,860.38 438,861L437,849C437,849 413.887,844.39 413,806C412.113,767.61 413.863,755.66 408,724C402.137,692.34 399.57,683.45 397,668C394.43,652.555 399,645 399,645L390,645ZM1226.25,617.189C1220.29,619.339 1208.3,624.763 1198.05,636.191L1209,681C1209,681 1219.78,667.01 1224,641C1225.3,632.971 1226.17,624.649 1226.25,617.189ZM428,479C428,479 416.813,569.207 420,596L411,597C411,597 414.23,500.715 428,479ZM1161,507C1161,507 1171.83,560.754 1170,573L1180,573C1180,573 1178.18,521.891 1161,507Z" style="fill:rgb(145,117,105);fill-rule:nonzero;"/>
      <path d="M605.704,935.99C605.704,935.99 581.581,948.43 569.141,978.45C556.702,1008.47 553.296,1015.01 553.296,1015.01C553.296,1015.01 557.17,978.81 567.392,966.2C577.614,953.6 593.572,940.33 605.704,935.99ZM931,879C931,879 954.68,903.54 974,925C993.32,946.46 1001,1000 1001,1000C1001,1000 1002.19,948.31 985,928C967.81,907.69 939.21,885.71 931,879ZM674,680C674,680 667.545,689.23 652.067,697.84C636.59,706.45 612.09,714.45 576,712C576,712 623.852,710.69 674,680ZM898,688C898,688 907.695,692.51 923.29,694.88C938.89,697.26 960.39,697.51 984,689C984,689 938.67,696.53 898,688Z" style="fill:rgb(183,149,134);fill-rule:nonzero;"/>
      <path d="M519,646C519,646 537.764,619.016 569,614C569,614 598.564,611.664 621,623C643.436,634.336 651.639,647.717 662,646C672.361,644.283 679.617,658.598 674,659C668.383,659.402 655.133,653.496 649,655C642.867,656.504 628.648,666.08 608,668C608,668 636.354,660.016 641,648L634,650C634,650 637.449,641.586 631,636C624.551,630.414 608.102,617.807 582,618C555.898,618.193 539,646 539,646C539,646 543.449,653.744 551,657C551,657 537.279,652.594 532,645L519,646ZM1023,643C1023,643 1000.14,617.457 958,612C915.86,606.543 891.848,625.496 882,636C872.152,646.504 868.627,646.516 863,651C857.373,655.484 866.605,659.131 872,656C877.395,652.869 884.775,651.721 891,654C897.225,656.279 905.617,658.935 924,659C924,659 894.332,655.139 890,644L897,645C897,645 889.906,634.543 904,627C918.09,619.457 963.41,611.324 989,637C989,637 985.03,646.361 976,650C976,650 989.64,650.463 997,640C997,640 1013.53,635.609 1023,643ZM521,629C521,629 533.259,619.189 551.513,612.534C569.768,605.879 594.018,602.379 618,615C618,615 578.348,602.398 521,629ZM1020,629C1020,629 1011.01,617.844 993.15,609.766C975.28,601.688 948.53,596.688 913,609C913,609 968.84,596.715 1020,629Z" style="fill:rgb(117,99,91);fill-rule:nonzero;"/>
      <path d="M647.294,598.573C647.294,598.573 641.382,580.013 631.544,574.547L631.544,579.77C631.544,579.77 625.355,575.251 617.895,573.502C610.434,571.754 596.896,570.369 596.896,570.369L590.596,571.413L601.095,575.592C601.095,575.592 592.31,576.461 581.146,575.592C569.982,574.723 555.748,573.433 544.397,575.592C533.047,577.75 525.498,580.815 525.498,580.815L545.447,582.904L558.047,586.038C558.047,586.038 539.303,586.132 528.648,586.038C517.993,585.944 501.261,588.594 492.949,594.395C484.638,600.195 477.2,609.019 477.2,609.019L488.749,606.93C488.749,606.93 477.544,616.706 476.15,619.465C474.755,622.223 473,632 473,632C473,632 495.228,622.548 502.399,621.554C509.57,620.56 535.325,617.682 544.397,616.331C544.397,616.331 537.448,614.454 531.798,614.242C526.148,614.03 520.248,613.197 520.248,613.197C520.248,613.197 535.169,609.206 545.447,612.153C555.726,615.099 574.846,615.286 574.846,615.286L561.197,610.063C561.197,610.063 573.831,610.157 586.396,612.153C598.961,614.148 611.595,614.242 611.595,614.242L591.646,605.885C591.646,605.885 604.733,606.573 614.745,610.063C624.756,613.554 637.844,613.197 637.844,613.197L623.145,604.84L642.044,607.974C642.044,607.974 651.141,603.443 647.294,598.573ZM869.729,590.759C869.729,590.759 875.049,572.023 884.708,566.251L884.874,571.471C884.874,571.471 890.916,566.76 898.317,564.778C905.718,562.795 919.21,560.985 919.21,560.985L925.54,561.831L915.17,566.338C915.17,566.338 923.98,566.93 935.11,565.71C946.25,564.491 960.43,562.755 971.84,564.555C983.26,566.356 990.9,569.182 990.9,569.182L971.03,571.897L958.53,575.425C958.53,575.425 977.27,574.93 987.92,574.501C998.57,574.072 1015.37,576.195 1023.86,581.731C1032.36,587.268 1040.07,595.853 1040.07,595.853L1028.46,594.128C1028.46,594.128 1039.97,603.548 1041.45,606.261C1042.93,608.974 1045,618.691 1045,618.691C1045,618.691 1022.48,609.942 1015.28,609.174C1008.08,608.407 982.25,606.339 973.14,605.274C973.14,605.274 980.03,603.18 985.66,602.79C991.31,602.4 997.18,601.383 997.18,601.383C997.18,601.383 982.13,597.863 971.96,601.131C961.78,604.399 942.67,605.187 942.67,605.187L956.15,599.538C956.15,599.538 943.52,600.029 931.03,602.418C918.53,604.808 905.908,605.298 905.908,605.298L925.58,596.319C925.58,596.319 912.52,597.417 902.627,601.221C892.731,605.025 879.639,605.08 879.639,605.08L894.065,596.265L875.275,599.991C875.275,599.991 866.039,595.748 869.729,590.759ZM1157,496C1157,496 1163.63,520.543 1166,535C1168.37,549.457 1177.55,568.531 1177,574C1176.45,579.469 1172,612 1172,612L1205,589C1205,589 1202.06,557.953 1201,552C1199.94,546.047 1194,524 1194,524L1178,510C1168.02,500.223 1157,496 1157,496ZM660.943,604.84C660.943,604.84 657.186,581.557 643.094,574.547L647.294,589.171C647.294,589.171 657.295,604.959 660.943,604.84ZM428,466C428,466 423.117,532.059 421,551C418.883,569.941 416,599 416,599C416,599 407.707,589.426 403,574C398.293,558.574 392.762,539.734 393,535C393.238,530.266 389,516 389,516L390,507L398,498L428,466ZM856.285,597.453C856.285,597.453 859.301,574.064 873.164,566.614L869.431,581.363C869.431,581.363 859.936,597.457 856.285,597.453Z" style="fill:rgb(127,111,102);fill-rule:nonzero;"/>
    </g>
    <g id="glasses">
      <path d="M475,593C475,593 395.643,591.797 398,622C400.357,652.203 416.387,711.26 431,735C445.613,758.74 462.317,762.55 505,769C547.683,775.45 612.178,780.61 641,773C669.822,765.39 682.307,760.83 695,732C707.693,703.17 715.528,652.105 710,634C704.472,615.895 695.821,609.275 685,605C674.179,600.725 505.299,585.497 475,593ZM971,572C971,572 839.457,580.124 823,605C806.543,629.876 816.862,658.911 826,683C835.138,707.09 849.036,745.76 881,756C912.97,766.24 954.43,761.06 996,757C1037.57,752.94 1097.11,741.16 1109,726C1120.89,710.84 1135.96,667.6 1136,638C1136.04,608.398 1135,582 1135,582C1135,582 1010.01,564.673 971,572Z" style="fill:rgb(206,242,255);fill-opacity:0.32;fill-rule:nonzero;"/>
      <path d="M920,582C920,582 851.633,594.035 838,610C824.367,625.965 828.727,677.03 840,703C851.273,728.96 859,742 859,742C859,742 823.762,709.78 818,671C812.238,632.219 813,611 813,611C813,611 820.098,605.43 824,602C827.902,598.57 893.094,577.906 920,582ZM421,705C421,705 404.506,650.166 415,629C425.494,607.834 487.096,602.133 530,602C572.904,601.867 662.822,605.77 682,618C701.178,630.23 700.695,644.871 701,666C701.305,687.13 691.518,727.43 687,739C687,739 703.264,714.63 708,689C712.736,663.37 709.391,639.438 705,625C700.609,610.562 687.896,596.727 676,596C664.104,595.273 521.727,593.354 496,594C470.273,594.646 434.885,591.695 421,604C407.115,616.305 402.465,618.303 401,626C399.535,633.697 404.201,692.61 421,705ZM1021,578C1021,578 1109.55,582.754 1118,594C1126.45,605.246 1125.72,667.5 1118,691C1110.28,714.5 1101,721 1101,721C1101,721 1125.57,701.09 1131,680C1136.43,658.906 1140.67,610.09 1137,599C1133.33,587.91 1128.04,578.266 1122,578C1115.96,577.734 1109.55,576.006 1103,574C1096.45,571.994 1021,578 1021,578Z" style="fill:white;fill-rule:nonzero;"/>
      <path d="M397,642L380,639C380,639 373.639,616.895 376,608C376,608 401.322,598.205 432,593C462.678,587.795 530.096,580.252 599,582C667.904,583.748 687.064,596.562 709,600C730.936,603.438 766.727,608.764 795,598C823.273,587.236 858.853,578.453 919,570C979.15,561.547 1060,565.039 1097,566C1134,566.961 1158,573 1158,573L1208,561C1208,561 1207.89,577.111 1208,581C1208.11,584.889 1203,590 1203,590L1168,613C1168,613 1149.98,611.94 1146,615C1146,615 1141.12,670.3 1129,701C1116.88,731.7 1103.92,733.78 1087,743C1070.08,752.22 1005.94,763.93 968,766C930.06,768.07 879.242,769.36 857,752C834.758,734.64 818.863,704.07 815,684C811.137,663.93 808.674,640.633 801,635C793.326,629.367 765.248,629.576 749,632C732.752,634.424 716.723,638.809 717,645C717.277,651.191 715.57,692.08 702,725C688.43,757.92 667.363,776.61 618,779C568.637,781.39 487.432,777.24 461,766C434.568,754.76 418.844,733.82 413,713C407.156,692.18 396.242,652.744 397,642ZM705.341,647.387C704.667,635.949 702.613,625.988 699,619C688.652,598.988 606.895,594.5 563,597C519.203,599.494 441.139,602.574 428,608C414.861,613.426 404.506,629.533 407,642C409.494,654.467 422.422,715.51 432,731C441.578,746.49 472,761.75 504,766C536,770.25 612.76,772.8 640,768C667.24,763.2 685.096,750.6 696,717C700.79,702.24 703.948,685.4 705.104,669.45L702,671L696,670L693,674C693,674 688.748,678.41 683,675L683,666C683,666 686.615,655.465 689,655C691.385,654.535 697.352,658.479 700,657C701.605,656.104 703.836,651.151 705.341,647.387ZM822.578,662.76C824.831,676.89 828.392,692.29 834,705C845.01,729.95 861.885,751.06 902,757C942.12,762.94 1019.12,748.67 1055,742C1090.88,735.33 1117.77,716.95 1127,677C1136.23,637.049 1132.74,599.805 1127,591C1121.26,582.195 1059.02,574.736 973,579C934.45,580.911 881.727,587.932 861,594C840.273,600.068 818.127,613.254 819,629C819.181,632.263 819.458,636.365 819.887,641.039L820,641L824,650L831,653L839,655L842,662L839,667L832,667L826,662L822.578,662.76Z" style="fill:rgb(87,85,84);fill-rule:nonzero;"/>
      <path d="M1165,579L1167,601L1202,583L1202,566L1165,579Z" style="fill:rgb(105,103,103);fill-rule:nonzero;"/>
    </g>
    <g id="cap">
      <path d="M428,464L423,502L386,520L319,550C319,550 305.422,545.473 295,544C284.578,542.527 277,539 277,539C277,539 286.518,521.758 308,505C329.482,488.242 407,429 407,429C407,429 408.096,375.154 419,352C429.904,328.846 434,321 434,321C434,321 446.518,248.143 451,236C455.482,223.857 457.574,201.992 466,190C474.426,178.008 521.49,132.586 553,125C584.51,117.414 622.984,117.336 631,118C639.016,118.664 651,119 651,119C651,119 708.553,85.031 738,74C767.447,62.969 801.691,53.486 832,60C862.309,66.514 880,85 880,85C880,85 924.63,77.572 975,88C1025.37,98.428 1090.85,134.356 1108,156C1125.15,177.645 1144.83,194.9 1151,227C1157.17,259.1 1161,301 1161,301C1161,301 1185.44,354.271 1189,378C1192.56,401.728 1197,449 1197,449L1230,485C1230,485 1241.07,497.998 1241,505C1240.93,512.002 1233.66,521.049 1230,524C1226.34,526.951 1224,527 1224,527C1224,527 1070.25,457.092 1058,452C1045.75,446.908 931.48,406.133 877,402C822.516,397.867 718.148,396.783 644,406C569.852,415.217 463.521,444.738 454,449C444.479,453.262 428,464 428,464Z" style="fill:rgb(86,96,116);fill-rule:nonzero;"/>
      <path d="M376.48,525.734L353,538C353,538 286.797,567.328 306,543C306,543 332.105,521.082 365,498C397.895,474.918 429,464 429,464L420,503L397.961,514.513C397.947,521.734 398.356,538.617 402,551C406.758,567.166 414,598 414,598L409,598L376.48,525.734ZM1212,519C1212,519 1211.46,571.438 1203,587C1203,587 1200.83,543 1186,526C1171.17,509 1159,498 1159,498L1212,519Z" style="fill:rgb(66,75,91);fill-rule:nonzero;"/>
      <path d="M1098.44,256.613C1106.45,255.662 1125.64,252.648 1126,246C1126.46,237.596 1111.74,222.591 1087,211C1062.26,199.409 1010.09,161.239 1033,158C1033,158 1097.23,171.598 1118,189C1138.77,206.402 1147,225.749 1148,239C1149,252.251 1134,263 1134,263L1100.65,257.869C1144.03,283.271 1159.54,303.243 1169,322C1179.77,343.351 1193.87,408.456 1196,429C1198.13,449.544 1200,462 1200,462C1200,462 1149.9,424.613 1128,411C1106.1,397.387 1051.69,357.92 1029,352C1006.31,346.08 927,324 927,324C927,324 987.9,303.661 1031,312C1074.1,320.338 1098.29,329.31 1127,344C1155.71,358.69 1172.57,367.637 1156,352C1139.43,336.363 1092.52,278.195 1055,261C1017.48,243.805 970.7,214.333 944,211C944,211 1022.38,216.277 1081,247C1087.26,250.281 1093.07,253.473 1098.44,256.613ZM512,278C512,278 480.136,305.336 467,333C453.864,360.664 451.654,368.134 477,354C502.346,339.866 529.698,335.461 536,334C542.301,332.539 561,339 561,339C561,339 512.236,370.28 500,378C487.764,385.72 408,436 408,436C408,436 408.49,402.575 413,380C417.51,357.425 417.46,339.543 435,323C452.54,306.457 495.146,281.924 512,278ZM477,288C485.784,286.897 516.274,275.895 558,249C599.726,222.105 548.059,217.405 531,212C513.941,206.595 504.281,199.045 520,181C535.719,162.955 539.4,153.762 560,146C580.6,138.238 661,125 661,125C661,125 619.675,110.328 583,119C546.325,127.672 480.868,152.713 469,184C457.132,215.287 454.277,245.374 454,253C453.723,260.626 444.429,292.088 477,288ZM688,129C695.501,126.714 692.365,110.869 713,103C733.635,95.13 796.815,99.99 812,121C827.185,142.01 891.7,145.864 935,143C978.3,140.136 993.34,131.549 1020,128C1046.66,124.451 1102,150 1102,150C1102,150 1047.36,113.675 1024,105C1000.64,96.325 991.38,87.436 966,86C940.62,84.564 928.09,91.165 921,94C913.91,96.835 888,94 888,94L865,73C865,73 821.994,56.404 787,60C752.006,63.596 710.592,85.291 701,92C691.408,98.709 650,116 650,116C650,116 675.123,132.924 688,129Z" style="fill:rgb(92,104,125);fill-rule:nonzero;"/>
      <path d="M932,330C932,330 1037.24,331.5 1074,351C1110.76,370.5 1149,410 1149,410L1177,437C1177,437 1117.18,395.453 1093,384C1068.82,372.547 932,330 932,330ZM646,321C646,321 566.961,334.141 529,343C491.039,351.859 470.645,361.668 454,377C437.355,392.332 410,432 410,432C410,432 513.801,360.051 546,353C578.199,345.949 646,321 646,321ZM463,199C463,199 452.559,247.922 459,263C465.441,278.078 471.086,280.426 491,273C510.914,265.574 546,259 546,259C546,259 482.793,293.02 469,303C455.207,312.98 435,325 435,325C435,325 445.992,288.02 447,276C448.008,263.981 455.676,208.324 463,199ZM1163,308C1163,308 1149.82,292.715 1133,280C1116.18,267.285 1086,251 1086,251C1086,251 1119.28,256.469 1132,255C1144.72,253.531 1145.63,256.613 1146,247C1146.37,237.387 1142.58,222.625 1141,215C1139.42,207.375 1130.71,205.719 1123,202C1115.29,198.281 1096.41,188.09 1090,185C1083.59,181.91 1065,169 1065,169L1046,159C1046,159 1092.83,167.977 1110,175C1127.17,182.023 1133.93,185.805 1144,200C1154.07,214.195 1156.29,234.695 1156,244C1155.71,253.305 1163,308 1163,308ZM881,82C881,82 895.16,100.293 930,109C964.84,117.707 999,122 999,122C999,122 956.19,113.578 947,102C937.81,90.422 957,83 957,83L881,82Z" style="fill:rgb(68,79,99);fill-rule:nonzero;"/>
      <path d="M281,534C281,534 406.601,422.813 616,387C825.399,351.187 1008.76,398.165 1074,429C1139.24,459.835 1222.66,529.486 1230,525C1230,525 1241.46,517.144 1241,506C1240.54,494.856 1229.8,482.842 1219,471C1208.2,459.158 1112.64,392.01 1078,374C1043.36,355.99 905.428,320.193 847,315C788.572,309.807 675.086,306.908 603,334C530.914,361.092 444.012,410.234 399,438C353.988,465.766 286.369,522.631 281,534Z" style="fill:rgb(117,131,155);fill-rule:nonzero;"/>
      <path d="M734,375C734,375 697.98,370.531 641,373C584.02,375.469 563.539,383.242 577,371C590.461,358.758 663,320 663,320C663,320 595.266,344.555 546,362C496.734,379.445 390.066,436.805 363,459C335.934,481.195 289,526 289,526C289,526 392.086,456.16 483,424C573.914,391.84 673.875,377.844 734,375ZM935,389C935,389 1035.27,399.328 1044,389C1052.73,378.672 1027,360 1027,360C1027,360 1105.9,389.727 1125,405C1143.28,419.622 1179.3,437.117 1190,450C1200.7,462.883 1164.22,453.019 1168,465C1171.78,476.98 1184,497 1184,497C1184.06,496.985 1128.01,452.529 1063.97,427.242C1010.23,406.027 935,389 935,389Z" style="fill:rgb(127,143,170);fill-rule:nonzero;"/>
      <path d="M293.304,551.909C300.522,555.487 310.075,557.696 321,554C345.43,545.734 424,501 424,501C424,501 364.906,527.926 345,537C327.098,545.16 311.471,545.113 308.505,545.019C328.223,524.794 402.302,458.344 552,425C729.895,385.375 895.086,394.5 1013,439C1130.91,483.5 1224,530 1224,530C1224,530 1244.36,522.121 1241,501C1241,501 1235.88,520.535 1224,523C1224,523 1047.98,441.309 999,427C950.02,412.691 859.57,379.879 683,398C506.43,416.121 471.687,437.562 407,469C342.313,500.437 299,540 299,540L278,539C278,539 281.48,550.479 293.304,551.909ZM404.11,431.099C404.661,413.356 408.229,351.969 431,322C431,322 447.203,222.309 459,197C470.797,171.691 516.527,121.766 580,117C643.473,112.234 648,114 648,114C648,114 734.141,61.91 792,57C849.859,52.09 880,81 880,81C880,81 953.62,65.926 1036,106C1118.38,146.074 1155.06,203.437 1158,242C1160.94,280.562 1166,311 1166,311C1166,311 1181.62,338.481 1189,376C1195.26,407.847 1199.54,443.267 1200.69,453.249C1224.38,474.477 1239.99,493.132 1242,502C1242,502 1183.37,427.012 1068,376C952.63,324.988 808.738,303.621 691,319C573.262,334.379 453.982,405.953 406,437C354.734,470.172 276,538 276,538C276,538 311.697,490.519 395,437C398.051,435.04 401.09,433.071 404.11,431.099ZM872.335,82.264C859.782,72.727 827.091,52.951 782,63C734.462,73.595 676.191,106.034 656.16,117.735C667.438,120.689 679,131 679,131C679,131 673.777,129.33 648,125C629.714,121.928 605.164,121.705 592.442,121.837C572.408,124.083 549.494,129.225 528,140C472.687,167.73 462,206 462,206C462,206 439.053,318.449 437,322L459,307C459,307 441.897,322.238 434,331C426.104,339.762 413.242,377.367 412,395C411.089,407.935 412.591,419.652 413.457,424.975C489.168,375.194 562.786,323.174 703,311C854.566,297.84 1000.3,337.707 1081,374C1124.23,393.439 1166.02,422.958 1196.21,449.299L1196,449C1196,449 1189.71,386.505 1183,364C1176.29,341.495 1167.87,323.713 1160,310C1152.13,296.286 1117,270 1117,270C1117,270 1149.28,285.621 1158,299C1158,299 1155.64,259.807 1152,237C1152,237 1137.45,180.709 1096,150C1096,150 1001.99,71.348 888.609,85.419C890.929,86.327 893.132,87.214 895,88C904.064,91.815 921,104 921,104C921,104 899.516,99.021 886,92C879.156,88.444 874.884,84.9 872.335,82.264ZM1039,158C1039,158 1092.54,180.301 1111,195C1129.46,209.699 1137,216 1137,216C1137,216 1105.57,184.979 1086,175C1066.43,165.022 1039,158 1039,158Z" style="fill:rgb(68,74,86);fill-rule:nonzero;"/>
    </g>
  </g>
</svg>
